<svg width="20" height="21" viewBox="0 0 20 21" fill="none" xmlns="http://www.w3.org/2000/svg">
<path d="M14.5203 3.35348C14.6927 3.18104 14.8975 3.04425 15.1228 2.95093C15.3481 2.8576 15.5895 2.80957 15.8334 2.80957C16.0773 2.80957 16.3188 2.8576 16.5441 2.95093C16.7694 3.04425 16.9741 3.18104 17.1465 3.35348C17.319 3.52592 17.4558 3.73064 17.5491 3.95594C17.6424 4.18124 17.6904 4.42272 17.6904 4.66659C17.6904 4.91046 17.6424 5.15194 17.5491 5.37724C17.4558 5.60255 17.319 5.80726 17.1465 5.97971L5.99042 17.1358L2.37936 18.1206L3.36419 14.5096L14.5203 3.35348Z" stroke="#232425" stroke-linecap="round" stroke-linejoin="round"/>
</svg>
