<svg width="21" height="21" viewBox="0 0 21 21" fill="none" xmlns="http://www.w3.org/2000/svg">
<path d="M18 5.48356C15.225 5.20856 12.4333 5.06689 9.65 5.06689C8 5.06689 6.35 5.15023 4.7 5.31689L3 5.48356" stroke="#FF0000" stroke-width="1.5" stroke-linecap="round" stroke-linejoin="round"/>
<path d="M7.58325 4.6415L7.76659 3.54984C7.89992 2.75817 7.99992 2.1665 9.40825 2.1665H11.5916C12.9999 2.1665 13.1083 2.7915 13.2333 3.55817L13.4166 4.6415" stroke="#FF0000" stroke-width="1.5" stroke-linecap="round" stroke-linejoin="round"/>
<path d="M16.2084 8.1167L15.6667 16.5084C15.5751 17.8167 15.5001 18.8334 13.1751 18.8334H7.82508C5.50008 18.8334 5.42508 17.8167 5.33341 16.5084L4.79175 8.1167" stroke="#FF0000" stroke-width="1.5" stroke-linecap="round" stroke-linejoin="round"/>
<path d="M9.1084 14.25H11.8834" stroke="#FF0000" stroke-width="1.5" stroke-linecap="round" stroke-linejoin="round"/>
<path d="M8.41675 10.9165H12.5834" stroke="#FF0000" stroke-width="1.5" stroke-linecap="round" stroke-linejoin="round"/>
</svg>
